<svg width="131" height="48" viewBox="0 0 131 48" fill="none" xmlns="http://www.w3.org/2000/svg">
<rect width="131" height="48" rx="24" fill="#2EBD59"/>
<path d="M51.5 24C51.5 16.2667 57.768 10 65.5 10C73.2333 10 79.5 16.268 79.5 24C79.5 31.732 73.2333 38 65.5 38C57.7667 38 51.5 31.7307 51.5 24ZM73.6333 26.3787C73.7082 26.2565 73.7583 26.1209 73.7807 25.9794C73.8031 25.8379 73.7975 25.6934 73.764 25.5541C73.7306 25.4148 73.6701 25.2835 73.5859 25.1676C73.5017 25.0517 73.3955 24.9535 73.2733 24.8787C68.9533 22.2227 62.632 21.476 57.548 23.0187C57.2876 23.1161 57.0741 23.3091 56.951 23.5584C56.8278 23.8077 56.8043 24.0946 56.8851 24.3606C56.966 24.6266 57.1452 24.8519 57.3862 24.9905C57.6273 25.1291 57.9121 25.1706 58.1827 25.1067C62.6333 23.756 68.3693 24.4267 72.132 26.74C72.2542 26.8151 72.39 26.8653 72.5316 26.8879C72.6732 26.9104 72.8179 26.9048 72.9573 26.8714C73.0968 26.8379 73.2283 26.7773 73.3443 26.693C73.4603 26.6087 73.5585 26.501 73.6333 26.3787ZM70.72 30.4813C70.9177 30.6021 71.1552 30.6394 71.3804 30.585C71.4919 30.5581 71.597 30.5094 71.6897 30.4419C71.7824 30.3744 71.8609 30.2892 71.9207 30.1913C71.9805 30.0935 72.0204 29.9848 72.0382 29.8714C72.056 29.7581 72.0513 29.6424 72.0243 29.5309C71.9974 29.4194 71.9488 29.3144 71.8812 29.2217C71.8137 29.129 71.7285 29.0505 71.6307 28.9907C67.9413 26.736 63.3667 26.2107 58.0333 27.4307C57.9216 27.4561 57.816 27.5034 57.7226 27.5697C57.6291 27.6359 57.5496 27.72 57.4886 27.817C57.4277 27.914 57.3864 28.0221 57.3672 28.135C57.348 28.248 57.3512 28.3636 57.3767 28.4753C57.4021 28.587 57.4494 28.6926 57.5157 28.7861C57.5819 28.8796 57.666 28.959 57.763 29.02C57.86 29.081 57.9681 29.1223 58.081 29.1415C58.194 29.1607 58.3096 29.1575 58.4213 29.132C63.2947 28.0187 67.4333 28.4733 70.72 30.4813ZM57.516 20.7907C61.824 19.484 69.268 19.7293 73.7813 22.4093C73.9292 22.4971 74.0929 22.5548 74.2631 22.5793C74.4333 22.6037 74.6066 22.5944 74.7732 22.5519C74.9398 22.5094 75.0964 22.4344 75.234 22.3314C75.3716 22.2283 75.4876 22.0992 75.5753 21.9513C75.6631 21.8035 75.7208 21.6398 75.7453 21.4696C75.7697 21.2994 75.7604 21.1261 75.7179 20.9595C75.6754 20.7929 75.6004 20.6363 75.4974 20.4987C75.3943 20.361 75.2652 20.2451 75.1173 20.1573C69.9227 17.0733 61.7 16.784 56.7573 18.2853C56.4249 18.3861 56.1462 18.6148 55.9824 18.9211C55.8186 19.2274 55.7832 19.5863 55.884 19.9187C55.9848 20.2511 56.2135 20.5298 56.5198 20.6936C56.8261 20.8574 57.1849 20.8928 57.5173 20.792L57.516 20.7907Z" fill="white"/>
</svg>
