<svg width="29" height="29" viewBox="0 0 29 29" fill="none" xmlns="http://www.w3.org/2000/svg">
<path d="M0.5 14.1091C0.5 6.3758 6.768 0.109131 14.5 0.109131C22.2333 0.109131 28.5 6.37713 28.5 14.1091C28.5 21.8411 22.2333 28.1091 14.5 28.1091C6.76667 28.1091 0.5 21.8398 0.5 14.1091ZM22.6333 16.4878C22.7082 16.3657 22.7583 16.23 22.7807 16.0885C22.8031 15.947 22.7975 15.8025 22.764 15.6632C22.7306 15.5239 22.6701 15.3926 22.5859 15.2767C22.5017 15.1608 22.3955 15.0626 22.2733 14.9878C17.9533 12.3318 11.632 11.5851 6.548 13.1278C6.28759 13.2253 6.07409 13.4183 5.95095 13.6676C5.82781 13.9169 5.80427 14.2037 5.88514 14.4697C5.966 14.7358 6.14518 14.961 6.38623 15.0996C6.62727 15.2382 6.91207 15.2797 7.18267 15.2158C11.6333 13.8651 17.3693 14.5358 21.132 16.8491C21.2542 16.9242 21.39 16.9745 21.5316 16.997C21.6732 17.0195 21.8179 17.0139 21.9573 16.9805C22.0968 16.947 22.2283 16.8864 22.3443 16.8021C22.4603 16.7178 22.5585 16.6101 22.6333 16.4878ZM19.72 20.5905C19.9177 20.7112 20.1552 20.7485 20.3804 20.6941C20.4919 20.6672 20.597 20.6186 20.6897 20.551C20.7824 20.4835 20.8609 20.3983 20.9207 20.3005C20.9805 20.2026 21.0204 20.0939 21.0382 19.9806C21.056 19.8673 21.0513 19.7516 21.0243 19.6401C20.9974 19.5286 20.9488 19.4235 20.8812 19.3308C20.8137 19.2381 20.7285 19.1596 20.6307 19.0998C16.9413 16.8451 12.3667 16.3198 7.03333 17.5398C6.92162 17.5653 6.81602 17.6125 6.72256 17.6788C6.62911 17.7451 6.54962 17.8291 6.48864 17.9261C6.42767 18.0231 6.38639 18.1312 6.36718 18.2442C6.34797 18.3571 6.35119 18.4728 6.37667 18.5845C6.40214 18.6962 6.44937 18.8018 6.51566 18.8952C6.58195 18.9887 6.66599 19.0682 6.763 19.1292C6.86001 19.1901 6.96807 19.2314 7.08103 19.2506C7.19399 19.2698 7.30962 19.2666 7.42133 19.2411C12.2947 18.1278 16.4333 18.5825 19.72 20.5905ZM6.516 10.8998C10.824 9.59313 18.268 9.83846 22.7813 12.5185C22.9292 12.6062 23.0929 12.6639 23.2631 12.6884C23.4333 12.7128 23.6066 12.7035 23.7732 12.661C23.9398 12.6185 24.0964 12.5436 24.234 12.4405C24.3716 12.3375 24.4876 12.2083 24.5753 12.0605C24.6631 11.9126 24.7208 11.7489 24.7453 11.5787C24.7697 11.4085 24.7604 11.2352 24.7179 11.0686C24.6754 10.902 24.6004 10.7454 24.4974 10.6078C24.3943 10.4702 24.2652 10.3542 24.1173 10.2665C18.9227 7.18246 10.7 6.89313 5.75733 8.39446C5.42493 8.49525 5.14617 8.72395 4.98239 9.03026C4.81861 9.33657 4.78322 9.69539 4.884 10.0278C4.98478 10.3602 5.21348 10.639 5.51979 10.8027C5.8261 10.9665 6.18493 11.0019 6.51733 10.9011L6.516 10.8998Z" fill="white"/>
</svg>
